<svg width="127" height="29" viewBox="0 0 127 29" fill="none" xmlns="http://www.w3.org/2000/svg">
<path d="M11.3429 21L4.23091 12.292V21H0.310913V1.45603H4.23091V10.22L11.3429 1.45603H16.0749L8.01091 11.144L16.2989 21H11.3429Z" fill="white"/>
<path d="M33.5213 5.48803V21H29.5733V19.04C29.0693 19.712 28.4067 20.244 27.5853 20.636C26.7827 21.0094 25.9053 21.196 24.9533 21.196C23.74 21.196 22.6667 20.944 21.7333 20.44C20.8 19.9174 20.0627 19.1614 19.5213 18.172C18.9987 17.164 18.7373 15.9694 18.7373 14.588V5.48803H22.6573V14.028C22.6573 15.26 22.9653 16.212 23.5813 16.884C24.1973 17.5374 25.0373 17.864 26.1013 17.864C27.184 17.864 28.0333 17.5374 28.6493 16.884C29.2653 16.212 29.5733 15.26 29.5733 14.028V5.48803H33.5213Z" fill="white"/>
<path d="M52.229 5.48803L42.625 28.336H38.453L41.813 20.608L35.597 5.48803H39.993L43.997 16.324L48.057 5.48803H52.229Z" fill="white"/>
<path d="M80.4662 1.45603L75.0062 21H70.3862L66.7182 7.08403L62.8822 21L58.2902 21.028L53.0262 1.45603H57.2262L60.6702 16.632L64.6462 1.45603H69.0142L72.7662 16.548L76.2382 1.45603H80.4662Z" fill="white"/>
<path d="M104.801 7.89603C105.305 7.0747 105.959 6.4307 106.761 5.96403C107.583 5.49736 108.516 5.26403 109.561 5.26403V9.38003H108.525C107.293 9.38003 106.36 9.66936 105.725 10.248C105.109 10.8267 104.801 11.8347 104.801 13.272V21H100.881V5.48803H104.801V7.89603Z" fill="white"/>
<path d="M121.386 21L116.122 14.392V21H112.202V0.280029H116.122V12.068L121.33 5.48803H126.426L119.594 13.272L126.482 21H121.386Z" fill="white"/>
<path d="M89.9138 21.252C88.4204 21.252 87.0764 20.9254 85.8818 20.272C84.6871 19.6 83.7444 18.6574 83.0538 17.444C82.3818 16.2307 82.0458 14.8307 82.0458 13.244C82.0458 11.6574 82.3911 10.2574 83.0818 9.04402C83.7911 7.83069 84.7524 6.89736 85.9658 6.24402C87.1791 5.57202 88.5324 5.23602 90.0258 5.23602C91.5191 5.23602 92.8724 5.57202 94.0858 6.24402C95.2991 6.89736 96.2511 7.83069 96.9418 9.04402C97.6511 10.2574 98.0058 11.6574 98.0058 13.244C98.0058 14.8307 97.6418 16.2307 96.9138 17.444C96.2044 18.6574 95.2338 19.6 94.0018 20.272C92.7884 20.9254 91.4258 21.252 89.9138 21.252ZM89.9138 17.836C90.6231 17.836 91.2858 17.668 91.9018 17.332C92.5364 16.9774 93.0404 16.4547 93.4138 15.764C93.7871 15.0734 93.9738 14.2334 93.9738 13.244C93.9738 11.7694 93.5818 10.64 92.7978 9.85602C92.0324 9.05336 91.0898 8.65202 89.9698 8.65202C88.8498 8.65202 87.9071 9.05336 87.1418 9.85602C86.3951 10.64 86.0218 11.7694 86.0218 13.244C86.0218 14.7187 86.3858 15.8574 87.1138 16.66C87.8604 17.444 88.7938 17.836 89.9138 17.836Z" fill="#FFB74D"/>
</svg>
