<svg width="22" height="22" viewBox="0 0 22 22" fill="none" xmlns="http://www.w3.org/2000/svg">
<path d="M17.4167 3.66667H16.4083C16.1956 2.63213 15.6327 1.70257 14.8145 1.03466C13.9963 0.366749 12.9729 0.00133331 11.9167 0L10.0833 0C9.02715 0.00133331 8.00371 0.366749 7.18552 1.03466C6.36733 1.70257 5.80442 2.63213 5.59167 3.66667H4.58333C3.3682 3.66812 2.20326 4.15148 1.34403 5.0107C0.484808 5.86993 0.00145554 7.03487 0 8.25L0 17.4167C0.00145554 18.6318 0.484808 19.7967 1.34403 20.656C2.20326 21.5152 3.3682 21.9985 4.58333 22H17.4167C18.6318 21.9985 19.7967 21.5152 20.656 20.656C21.5152 19.7967 21.9985 18.6318 22 17.4167V8.25C21.9985 7.03487 21.5152 5.86993 20.656 5.0107C19.7967 4.15148 18.6318 3.66812 17.4167 3.66667ZM10.0833 1.83333H11.9167C12.4834 1.83568 13.0356 2.01308 13.4976 2.34125C13.9597 2.66942 14.3091 3.13233 14.498 3.66667H7.502C7.69091 3.13233 8.0403 2.66942 8.50236 2.34125C8.96442 2.01308 9.51659 1.83568 10.0833 1.83333ZM4.58333 5.5H17.4167C18.146 5.5 18.8455 5.78973 19.3612 6.30546C19.8769 6.82118 20.1667 7.52065 20.1667 8.25V11H1.83333V8.25C1.83333 7.52065 2.12306 6.82118 2.63879 6.30546C3.15451 5.78973 3.85399 5.5 4.58333 5.5ZM17.4167 20.1667H4.58333C3.85399 20.1667 3.15451 19.8769 2.63879 19.3612C2.12306 18.8455 1.83333 18.146 1.83333 17.4167V12.8333H10.0833V13.75C10.0833 13.9931 10.1799 14.2263 10.3518 14.3982C10.5237 14.5701 10.7569 14.6667 11 14.6667C11.2431 14.6667 11.4763 14.5701 11.6482 14.3982C11.8201 14.2263 11.9167 13.9931 11.9167 13.75V12.8333H20.1667V17.4167C20.1667 18.146 19.8769 18.8455 19.3612 19.3612C18.8455 19.8769 18.146 20.1667 17.4167 20.1667Z" fill="white"/>
</svg>
