<svg width="11" height="11" viewBox="0 0 11 11" fill="none" xmlns="http://www.w3.org/2000/svg">
<path d="M5.5 0C4.4122 0 3.34883 0.322569 2.44437 0.926917C1.5399 1.53126 0.834947 2.39025 0.418665 3.39524C0.00238309 4.40023 -0.106535 5.5061 0.105683 6.573C0.317902 7.63989 0.841726 8.6199 1.61091 9.38908C2.3801 10.1583 3.36011 10.6821 4.427 10.8943C5.4939 11.1065 6.59977 10.9976 7.60476 10.5813C8.60975 10.1651 9.46873 9.4601 10.0731 8.55563C10.6774 7.65116 11 6.5878 11 5.5C10.9984 4.04179 10.4185 2.64376 9.38734 1.61265C8.35624 0.581546 6.95821 0.00157716 5.5 0ZM5.5 10.0833C4.5935 10.0833 3.70736 9.81452 2.95364 9.3109C2.19991 8.80728 1.61246 8.09146 1.26555 7.25396C0.918653 6.41647 0.827887 5.49491 1.00474 4.60584C1.18159 3.71676 1.6181 2.90008 2.2591 2.25909C2.90009 1.6181 3.71676 1.18158 4.60584 1.00473C5.49492 0.827885 6.41647 0.91865 7.25397 1.26555C8.09146 1.61245 8.80728 2.19991 9.3109 2.95364C9.81452 3.70736 10.0833 4.5935 10.0833 5.5C10.082 6.71516 9.59868 7.88018 8.73943 8.73943C7.88018 9.59868 6.71517 10.082 5.5 10.0833Z" fill="#F5F5F5"/>
<path d="M5.5 2.75C5.37844 2.75 5.26186 2.79829 5.17591 2.88424C5.08995 2.9702 5.04166 3.08677 5.04166 3.20833V5.19062L3.49662 6.15862C3.3933 6.22317 3.31985 6.32612 3.29243 6.44482C3.26501 6.56352 3.28587 6.68826 3.35041 6.79158C3.41496 6.89491 3.51791 6.96836 3.63661 6.99578C3.75532 7.02319 3.88005 7.00234 3.98337 6.93779L5.74337 5.83779C5.80987 5.79613 5.86456 5.73809 5.90219 5.66923C5.93983 5.60037 5.95916 5.52301 5.95833 5.44454V3.20833C5.95833 3.08677 5.91004 2.9702 5.82409 2.88424C5.73813 2.79829 5.62156 2.75 5.5 2.75Z" fill="#F5F5F5"/>
</svg>
