<svg width="13" height="14" viewBox="0 0 13 14" fill="none" xmlns="http://www.w3.org/2000/svg">
<path d="M7.82216 6.9983L12.7962 2.0243C12.8945 1.90952 12.9458 1.76188 12.94 1.61087C12.9341 1.45987 12.8716 1.31662 12.7647 1.20977C12.6578 1.10291 12.5146 1.04031 12.3636 1.03448C12.2126 1.02865 12.0649 1.08001 11.9502 1.1783L6.97616 6.1523L2.00216 1.1723C1.88917 1.05932 1.73594 0.99585 1.57616 0.99585C1.41637 0.99585 1.26314 1.05932 1.15016 1.1723C1.03717 1.28529 0.973701 1.43852 0.973701 1.5983C0.973701 1.75809 1.03717 1.91132 1.15016 2.0243L6.13016 6.9983L1.15016 11.9723C1.08735 12.0261 1.03633 12.0923 1.00032 12.1667C0.964307 12.2412 0.944068 12.3222 0.940877 12.4049C0.937685 12.4875 0.951608 12.5699 0.981773 12.6469C1.01194 12.7239 1.05769 12.7938 1.11617 12.8523C1.17464 12.9108 1.24457 12.9565 1.32156 12.9867C1.39856 13.0169 1.48096 13.0308 1.56359 13.0276C1.64622 13.0244 1.7273 13.0042 1.80174 12.9681C1.87618 12.9321 1.94237 12.8811 1.99616 12.8183L6.97616 7.8443L11.9502 12.8183C12.0649 12.9166 12.2126 12.968 12.3636 12.9621C12.5146 12.9563 12.6578 12.8937 12.7647 12.7868C12.8716 12.68 12.9341 12.5367 12.94 12.3857C12.9458 12.2347 12.8945 12.0871 12.7962 11.9723L7.82216 6.9983Z" fill="#1E1E1E"/>
</svg>
