<svg width="38" height="33" viewBox="0 0 38 33" fill="none" xmlns="http://www.w3.org/2000/svg">
<path d="M37.125 17.9662L37.1236 15.8089C31.0006 14.1768 27.3665 7.93162 29.0036 1.85505L27.1186 0.777771C26.053 1.83659 24.7872 2.67619 23.3937 3.24839C22.0003 3.82058 20.5067 4.11411 18.9986 4.11213C16.0588 4.11213 13.1207 3.00113 10.8786 0.777771L8.995 1.8582C9.1323 2.36762 9.2193 2.87703 9.28409 3.38465C11.9539 5.782 15.3687 7.10972 18.9986 7.10972C21.3399 7.10972 23.5933 6.55355 25.6165 5.52168C25.8544 10.1293 28.3298 14.3809 32.2331 16.888C28.328 19.3977 25.8544 23.6538 25.6179 28.2615C26.7387 28.837 27.7799 29.5536 28.7159 30.3936C28.0059 24.8309 31.5139 19.462 37.125 17.9662Z" fill="#FFB74D"/>
<path d="M28.7159 30.3936C26.0443 27.9953 22.6291 26.6671 19.0014 26.6671C16.7015 26.6655 14.4345 27.2089 12.3889 28.252V28.2417C12.1469 23.6421 9.67333 19.3941 5.77781 16.8902C9.67514 14.3863 12.1469 10.1361 12.3871 5.53561L12.2888 5.46727C11.2029 4.90086 10.1932 4.20099 9.28364 3.3842C9.99414 8.9473 6.48514 14.3171 0.875 15.8116L0.876359 17.9689C6.99898 19.6005 10.6335 25.8461 8.99636 31.9227L10.88 33C11.9457 31.9408 13.2117 31.1009 14.6054 30.5284C15.9991 29.9559 17.493 29.6621 19.0014 29.6638C20.5095 29.6621 22.0032 29.956 23.3966 30.5285C24.7901 31.101 26.0559 31.9409 27.1214 33L29.005 31.92L28.7159 30.3936Z" fill="white"/>
</svg>
