<svg width="20" height="18" viewBox="0 0 20 18" fill="none" xmlns="http://www.w3.org/2000/svg">
<path d="M20 9.59437L19.9993 8.40415C16.621 7.50368 14.616 4.05807 15.5193 0.705477L14.4792 0.111115C13.8913 0.695292 13.1929 1.15852 12.4241 1.47421C11.6553 1.78991 10.8313 1.95185 9.99925 1.95076C8.37725 1.95076 6.75625 1.33779 5.51925 0.111115L4.48 0.707213C4.55575 0.98827 4.60375 1.26933 4.6395 1.54939C6.1125 2.87207 7.9965 3.6046 9.99925 3.6046C11.291 3.6046 12.5342 3.29775 13.6505 2.72844C13.7817 5.2706 15.1475 7.6163 17.301 8.99951C15.1465 10.3842 13.7818 12.7324 13.6513 15.2745C14.2696 15.5921 14.8441 15.9874 15.3605 16.4509C14.9688 13.3818 16.9042 10.4197 20 9.59437Z" fill="#FFB74D"/>
<path d="M15.3605 16.4509C13.8865 15.1277 12.0022 14.3949 10.0007 14.3949C8.73185 14.394 7.48108 14.6938 6.3525 15.2693V15.2636C6.219 12.7259 4.85425 10.3822 2.705 9.00075C4.85525 7.61928 6.219 5.27433 6.3515 2.73613L6.29725 2.69843C5.69815 2.38592 5.1411 1.99979 4.63925 1.54914C5.03125 4.61844 3.09525 7.58108 0 8.40564L0.000750065 9.59585C3.37875 10.4961 5.384 13.9419 4.48075 17.2945L5.52 17.8889C6.10799 17.3045 6.80648 16.8411 7.5754 16.5252C8.34433 16.2094 9.16854 16.0473 10.0007 16.0483C10.8328 16.0473 11.6569 16.2094 12.4257 16.5253C13.1945 16.8412 13.8929 17.3046 14.4807 17.8889L15.52 17.293L15.3605 16.4509Z" fill="#263238"/>
</svg>
