<svg width="22" height="22" viewBox="0 0 22 22" fill="none" xmlns="http://www.w3.org/2000/svg">
<path d="M6.41667 12.8333C6.41667 13.0764 6.32009 13.3096 6.14818 13.4815C5.97627 13.6534 5.74312 13.75 5.5 13.75H4.58333C4.34022 13.75 4.10706 13.6534 3.93515 13.4815C3.76324 13.3096 3.66667 13.0764 3.66667 12.8333C3.66667 12.5902 3.76324 12.3571 3.93515 12.1852C4.10706 12.0132 4.34022 11.9167 4.58333 11.9167H5.5C5.74312 11.9167 5.97627 12.0132 6.14818 12.1852C6.32009 12.3571 6.41667 12.5902 6.41667 12.8333ZM10.0833 11.9167H9.16667C8.92355 11.9167 8.69039 12.0132 8.51849 12.1852C8.34658 12.3571 8.25 12.5902 8.25 12.8333C8.25 13.0764 8.34658 13.3096 8.51849 13.4815C8.69039 13.6534 8.92355 13.75 9.16667 13.75H10.0833C10.3264 13.75 10.5596 13.6534 10.7315 13.4815C10.9034 13.3096 11 13.0764 11 12.8333C11 12.5902 10.9034 12.3571 10.7315 12.1852C10.5596 12.0132 10.3264 11.9167 10.0833 11.9167ZM5.5 15.5833H4.58333C4.34022 15.5833 4.10706 15.6799 3.93515 15.8518C3.76324 16.0237 3.66667 16.2569 3.66667 16.5C3.66667 16.7431 3.76324 16.9763 3.93515 17.1482C4.10706 17.3201 4.34022 17.4167 4.58333 17.4167H5.5C5.74312 17.4167 5.97627 17.3201 6.14818 17.1482C6.32009 16.9763 6.41667 16.7431 6.41667 16.5C6.41667 16.2569 6.32009 16.0237 6.14818 15.8518C5.97627 15.6799 5.74312 15.5833 5.5 15.5833ZM10.0833 15.5833H9.16667C8.92355 15.5833 8.69039 15.6799 8.51849 15.8518C8.34658 16.0237 8.25 16.2569 8.25 16.5C8.25 16.7431 8.34658 16.9763 8.51849 17.1482C8.69039 17.3201 8.92355 17.4167 9.16667 17.4167H10.0833C10.3264 17.4167 10.5596 17.3201 10.7315 17.1482C10.9034 16.9763 11 16.7431 11 16.5C11 16.2569 10.9034 16.0237 10.7315 15.8518C10.5596 15.6799 10.3264 15.5833 10.0833 15.5833ZM5.5 4.58333H4.58333C4.34022 4.58333 4.10706 4.67991 3.93515 4.85182C3.76324 5.02373 3.66667 5.25689 3.66667 5.5C3.66667 5.74312 3.76324 5.97627 3.93515 6.14818C4.10706 6.32009 4.34022 6.41667 4.58333 6.41667H5.5C5.74312 6.41667 5.97627 6.32009 6.14818 6.14818C6.32009 5.97627 6.41667 5.74312 6.41667 5.5C6.41667 5.25689 6.32009 5.02373 6.14818 4.85182C5.97627 4.67991 5.74312 4.58333 5.5 4.58333ZM10.0833 4.58333H9.16667C8.92355 4.58333 8.69039 4.67991 8.51849 4.85182C8.34658 5.02373 8.25 5.25689 8.25 5.5C8.25 5.74312 8.34658 5.97627 8.51849 6.14818C8.69039 6.32009 8.92355 6.41667 9.16667 6.41667H10.0833C10.3264 6.41667 10.5596 6.32009 10.7315 6.14818C10.9034 5.97627 11 5.74312 11 5.5C11 5.25689 10.9034 5.02373 10.7315 4.85182C10.5596 4.67991 10.3264 4.58333 10.0833 4.58333ZM5.5 8.25H4.58333C4.34022 8.25 4.10706 8.34658 3.93515 8.51849C3.76324 8.69039 3.66667 8.92355 3.66667 9.16667C3.66667 9.40978 3.76324 9.64294 3.93515 9.81485C4.10706 9.98676 4.34022 10.0833 4.58333 10.0833H5.5C5.74312 10.0833 5.97627 9.98676 6.14818 9.81485C6.32009 9.64294 6.41667 9.40978 6.41667 9.16667C6.41667 8.92355 6.32009 8.69039 6.14818 8.51849C5.97627 8.34658 5.74312 8.25 5.5 8.25ZM10.0833 8.25H9.16667C8.92355 8.25 8.69039 8.34658 8.51849 8.51849C8.34658 8.69039 8.25 8.92355 8.25 9.16667C8.25 9.40978 8.34658 9.64294 8.51849 9.81485C8.69039 9.98676 8.92355 10.0833 9.16667 10.0833H10.0833C10.3264 10.0833 10.5596 9.98676 10.7315 9.81485C10.9034 9.64294 11 9.40978 11 9.16667C11 8.92355 10.9034 8.69039 10.7315 8.51849C10.5596 8.34658 10.3264 8.25 10.0833 8.25ZM22 9.16667V17.4167C21.9985 18.6318 21.5152 19.7967 20.656 20.656C19.7967 21.5152 18.6318 21.9985 17.4167 22H4.58333C3.3682 21.9985 2.20326 21.5152 1.34403 20.656C0.484808 19.7967 0.00145554 18.6318 0 17.4167L0 4.58333C0.00145554 3.3682 0.484808 2.20326 1.34403 1.34403C2.20326 0.484808 3.3682 0.00145554 4.58333 0L10.0833 0C11.2985 0.00145554 12.4634 0.484808 13.3226 1.34403C14.1819 2.20326 14.6652 3.3682 14.6667 4.58333H17.4167C18.6318 4.58479 19.7967 5.06814 20.656 5.92737C21.5152 6.78659 21.9985 7.95154 22 9.16667ZM4.58333 20.1667H12.8333V4.58333C12.8333 3.85399 12.5436 3.15451 12.0279 2.63879C11.5122 2.12306 10.8127 1.83333 10.0833 1.83333H4.58333C3.85399 1.83333 3.15451 2.12306 2.63879 2.63879C2.12306 3.15451 1.83333 3.85399 1.83333 4.58333V17.4167C1.83333 18.146 2.12306 18.8455 2.63879 19.3612C3.15451 19.8769 3.85399 20.1667 4.58333 20.1667ZM20.1667 9.16667C20.1667 8.43732 19.8769 7.73785 19.3612 7.22212C18.8455 6.7064 18.146 6.41667 17.4167 6.41667H14.6667V20.1667H17.4167C18.146 20.1667 18.8455 19.8769 19.3612 19.3612C19.8769 18.8455 20.1667 18.146 20.1667 17.4167V9.16667ZM17.4167 11.9167C17.2354 11.9167 17.0581 11.9704 16.9074 12.0712C16.7566 12.1719 16.6392 12.315 16.5698 12.4825C16.5004 12.65 16.4822 12.8344 16.5176 13.0122C16.553 13.19 16.6403 13.3533 16.7685 13.4815C16.8967 13.6097 17.06 13.697 17.2378 13.7324C17.4156 13.7678 17.6 13.7496 17.7675 13.6802C17.935 13.6108 18.0781 13.4934 18.1788 13.3426C18.2796 13.1919 18.3333 13.0146 18.3333 12.8333C18.3333 12.5902 18.2368 12.3571 18.0648 12.1852C17.8929 12.0132 17.6598 11.9167 17.4167 11.9167ZM17.4167 15.5833C17.2354 15.5833 17.0581 15.6371 16.9074 15.7378C16.7566 15.8385 16.6392 15.9817 16.5698 16.1492C16.5004 16.3167 16.4822 16.501 16.5176 16.6788C16.553 16.8566 16.6403 17.02 16.7685 17.1482C16.8967 17.2764 17.06 17.3637 17.2378 17.3991C17.4156 17.4344 17.6 17.4163 17.7675 17.3469C17.935 17.2775 18.0781 17.16 18.1788 17.0093C18.2796 16.8585 18.3333 16.6813 18.3333 16.5C18.3333 16.2569 18.2368 16.0237 18.0648 15.8518C17.8929 15.6799 17.6598 15.5833 17.4167 15.5833ZM17.4167 8.25C17.2354 8.25 17.0581 8.30376 16.9074 8.40449C16.7566 8.50521 16.6392 8.64837 16.5698 8.81587C16.5004 8.98337 16.4822 9.16768 16.5176 9.3455C16.553 9.52332 16.6403 9.68665 16.7685 9.81485C16.8967 9.94305 17.06 10.0304 17.2378 10.0657C17.4156 10.1011 17.6 10.0829 17.7675 10.0136C17.935 9.94418 18.0781 9.82668 18.1788 9.67594C18.2796 9.5252 18.3333 9.34797 18.3333 9.16667C18.3333 8.92355 18.2368 8.69039 18.0648 8.51849C17.8929 8.34658 17.6598 8.25 17.4167 8.25Z" fill="white"/>
</svg>
