<svg width="15" height="16" viewBox="0 0 15 16" fill="none" xmlns="http://www.w3.org/2000/svg">
<path d="M8.66503 16C8.52078 16 8.38042 15.9532 8.26503 15.8667L5.59836 13.8667C5.51556 13.8046 5.44836 13.724 5.40208 13.6315C5.35579 13.5389 5.33169 13.4368 5.33169 13.3333V9.58667L0.65436 4.32467C0.322173 3.94992 0.105279 3.48721 0.0297461 2.99216C-0.0457869 2.4971 0.0232555 1.99077 0.228575 1.53401C0.433894 1.07725 0.766754 0.689506 1.18715 0.417377C1.60754 0.145249 2.09758 0.000316279 2.59836 0L12.065 0C12.5658 0.000587367 13.0557 0.14576 13.4759 0.418071C13.8961 0.690383 14.2288 1.07825 14.4339 1.53506C14.639 1.99187 14.7078 2.49818 14.6321 2.99316C14.5564 3.48815 14.3393 3.95073 14.007 4.32533L9.33169 9.58667V15.3333C9.33169 15.5101 9.26146 15.6797 9.13643 15.8047C9.01141 15.9298 8.84184 16 8.66503 16ZM6.66503 13L7.99836 14V9.33333C7.9985 9.17011 8.05851 9.0126 8.16703 8.89067L13.0124 3.43933C13.1739 3.25672 13.2794 3.03136 13.316 2.7903C13.3526 2.54924 13.3189 2.30274 13.2189 2.08037C13.1188 1.85801 12.9568 1.66924 12.7521 1.53673C12.5474 1.40421 12.3089 1.33359 12.065 1.33333H2.59836C2.35466 1.3337 2.11624 1.40436 1.9117 1.53684C1.70715 1.66932 1.54516 1.858 1.44516 2.08023C1.34516 2.30247 1.3114 2.54884 1.34791 2.78979C1.38443 3.03074 1.48967 3.25604 1.65103 3.43867L6.49703 8.89067C6.6053 9.0127 6.66508 9.17019 6.66503 9.33333V13Z" fill="#F5F5F5"/>
</svg>
