<svg width="20" height="20" viewBox="0 0 20 20" fill="none" xmlns="http://www.w3.org/2000/svg">
<path d="M19.2675 7.54421L12.9467 1.21875C12.1644 0.438275 11.1047 0 10 0C8.89528 0 7.83563 0.438275 7.05334 1.21875L0.732509 7.54421C0.499531 7.77583 0.314818 8.05143 0.189079 8.35501C0.0633393 8.6586 -0.000925333 8.98414 1.00662e-05 9.31277V17.4985C1.00662e-05 18.1619 0.263402 18.7982 0.732242 19.2673C1.20108 19.7365 1.83697 20 2.50001 20H17.5C18.163 20 18.7989 19.7365 19.2678 19.2673C19.7366 18.7982 20 18.1619 20 17.4985V9.31277C20.0009 8.98414 19.9367 8.6586 19.8109 8.35501C19.6852 8.05143 19.5005 7.77583 19.2675 7.54421ZM12.5 18.3323H7.5V15.052C7.5 14.3886 7.76339 13.7523 8.23223 13.2832C8.70108 12.8141 9.33696 12.5505 10 12.5505C10.663 12.5505 11.2989 12.8141 11.7678 13.2832C12.2366 13.7523 12.5 14.3886 12.5 15.052V18.3323ZM18.3333 17.4985C18.3333 17.7196 18.2455 17.9317 18.0892 18.0881C17.933 18.2445 17.721 18.3323 17.5 18.3323H14.1667V15.052C14.1667 13.9463 13.7277 12.8859 12.9463 12.104C12.1649 11.3221 11.1051 10.8829 10 10.8829C8.89493 10.8829 7.83513 11.3221 7.05372 12.104C6.27232 12.8859 5.83334 13.9463 5.83334 15.052V18.3323H2.50001C2.27899 18.3323 2.06703 18.2445 1.91075 18.0881C1.75447 17.9317 1.66668 17.7196 1.66668 17.4985V9.31277C1.66745 9.09178 1.75517 8.87999 1.91084 8.72325L8.23167 2.40029C8.70142 1.93245 9.33722 1.66981 10 1.66981C10.6628 1.66981 11.2986 1.93245 11.7683 2.40029L18.0892 8.72575C18.2442 8.88188 18.3319 9.09265 18.3333 9.31277V17.4985Z" fill="#FFB74D"/>
</svg>
