<svg width="21" height="22" viewBox="0 0 21 22" fill="none" xmlns="http://www.w3.org/2000/svg">
<path d="M17.0221 14.6959H12.0678L15.0874 11.643C15.4234 11.309 15.6897 10.9117 15.871 10.474C16.0522 10.0363 16.1448 9.56705 16.1434 9.09334C16.1434 8.12899 15.7692 7.22356 15.0882 6.54257C14.6055 6.05754 13.9941 5.72074 13.3262 5.57195C13.671 5.00748 13.8525 4.35845 13.8506 3.69699C13.8509 1.70885 12.2334 0.0910645 10.2444 0.0910645H4.23663C2.24794 0.0910645 0.629883 1.7083 0.629883 3.69726C0.629883 5.68568 2.24767 7.30428 4.23581 7.30428L12.5386 7.30537C13.0169 7.30537 13.4655 7.49082 13.8018 7.82736C14.1402 8.16581 14.3257 8.6158 14.3257 9.09334C14.3257 9.57087 14.1402 10.02 13.7983 10.3609L9.51107 14.6961L7.93228 16.429C7.58833 16.9931 7.40719 17.6414 7.40893 18.3021C7.40893 20.2899 9.02671 21.9088 11.0151 21.9088H17.0221C19.0111 21.9088 20.6297 20.2899 20.6297 18.3021C20.6297 16.3131 19.0111 14.6959 17.0221 14.6959ZM11.5055 4.96515L10.9889 5.48714L4.23636 5.48659C3.76205 5.48601 3.30735 5.29728 2.97204 4.96182C2.63673 4.62636 2.44821 4.17157 2.44785 3.69726C2.44785 2.71192 3.25074 1.9093 4.23636 1.9093L10.2444 1.90957C11.23 1.90957 12.0329 2.71247 12.0329 3.69754C12.0335 3.93326 11.9872 4.16674 11.8967 4.38437C11.8061 4.60201 11.6731 4.79943 11.5055 4.96515ZM17.0221 20.0906H11.0151C10.5411 20.0901 10.0865 19.9015 9.75131 19.5663C9.41607 19.2312 9.22747 18.7767 9.22689 18.3026C9.22689 17.8248 9.41343 17.3759 9.75434 17.035L10.2703 16.5138L17.0224 16.5135C18.0096 16.5135 18.8117 17.3154 18.8117 18.3018C18.811 18.7761 18.6222 19.2308 18.2867 19.5661C17.9512 19.9015 17.4964 20.0901 17.0221 20.0906Z" fill="white"/>
<path d="M9.19089 7.3051L6.17186 10.3571C4.76653 11.7633 4.76762 14.052 6.17186 15.4573C6.65348 15.9432 7.26465 16.2804 7.93255 16.4287L9.51134 14.6959H8.7199C8.4855 14.6968 8.25325 14.651 8.03673 14.5612C7.82021 14.4714 7.62375 14.3394 7.45884 14.1728C6.76149 13.4749 6.76149 12.3404 7.46102 11.6392L11.7479 7.3051H9.19089Z" fill="#FFB74D"/>
</svg>
