<svg width="21" height="22" viewBox="0 0 21 22" fill="none" xmlns="http://www.w3.org/2000/svg">
<path d="M17.0221 14.6959H12.0678L15.0874 11.6431C15.4234 11.3091 15.6897 10.9117 15.871 10.4741C16.0522 10.0364 16.1448 9.56711 16.1434 9.0934C16.1434 8.12905 15.7692 7.22362 15.0882 6.54263C14.6055 6.0576 13.9941 5.7208 13.3262 5.57201C13.671 5.00754 13.8525 4.35851 13.8506 3.69705C13.8509 1.70891 12.2334 0.0911255 10.2444 0.0911255H4.23663C2.24794 0.0911255 0.629883 1.70837 0.629883 3.69732C0.629883 5.68574 2.24767 7.30434 4.23581 7.30434L12.5386 7.30543C13.0169 7.30543 13.4655 7.49088 13.8018 7.82742C14.1402 8.16587 14.3257 8.61586 14.3257 9.0934C14.3257 9.57093 14.1402 10.0201 13.7983 10.361L9.51107 14.6962L7.93228 16.4291C7.58833 16.9932 7.40719 17.6414 7.40893 18.3021C7.40893 20.29 9.02671 21.9089 11.0151 21.9089H17.0221C19.0111 21.9089 20.6297 20.29 20.6297 18.3021C20.6297 16.3132 19.0111 14.6959 17.0221 14.6959ZM11.5055 4.96521L10.9889 5.4872L4.23636 5.48665C3.76205 5.48607 3.30735 5.29735 2.97204 4.96188C2.63673 4.62642 2.44821 4.17163 2.44785 3.69732C2.44785 2.71198 3.25074 1.90936 4.23636 1.90936L10.2444 1.90963C11.23 1.90963 12.0329 2.71253 12.0329 3.6976C12.0335 3.93332 11.9872 4.1668 11.8967 4.38443C11.8061 4.60207 11.6731 4.79949 11.5055 4.96521ZM17.0221 20.0906H11.0151C10.5411 20.0901 10.0865 19.9016 9.75131 19.5664C9.41607 19.2312 9.22747 18.7767 9.22689 18.3027C9.22689 17.8249 9.41343 17.376 9.75434 17.0351L10.2703 16.5139L17.0224 16.5136C18.0096 16.5136 18.8117 17.3154 18.8117 18.3018C18.811 18.7762 18.6222 19.2309 18.2867 19.5662C17.9512 19.9015 17.4964 20.0901 17.0221 20.0906Z" fill="#263238"/>
<path d="M9.19089 7.30516L6.17186 10.3572C4.76653 11.7633 4.76762 14.052 6.17186 15.4574C6.65348 15.9433 7.26465 16.2805 7.93255 16.4288L9.51134 14.6959H8.7199C8.4855 14.6969 8.25325 14.6511 8.03673 14.5613C7.82021 14.4715 7.62375 14.3394 7.45884 14.1728C6.76149 13.4749 6.76149 12.3404 7.46102 11.6393L11.7479 7.30516H9.19089Z" fill="#FFB74D"/>
</svg>
