<svg width="10" height="11" viewBox="0 0 10 11" fill="none" xmlns="http://www.w3.org/2000/svg">
<path d="M4.60814 2.75068C4.24558 2.75068 3.89115 2.85819 3.58969 3.05963C3.28822 3.26106 3.05326 3.54736 2.91451 3.88233C2.77576 4.2173 2.73946 4.58589 2.81019 4.94149C2.88093 5.29709 3.05552 5.62373 3.31189 5.88011C3.56827 6.13648 3.89491 6.31107 4.25051 6.38181C4.60611 6.45254 4.9747 6.41624 5.30967 6.27749C5.64464 6.13874 5.93094 5.90378 6.13237 5.60231C6.33381 5.30085 6.44132 4.94642 6.44132 4.58385C6.44132 4.09767 6.24818 3.63139 5.9044 3.2876C5.56061 2.94382 5.09433 2.75068 4.60814 2.75068ZM4.60814 5.50044C4.42686 5.50044 4.24965 5.44669 4.09892 5.34597C3.94818 5.24525 3.8307 5.1021 3.76133 4.93462C3.69195 4.76713 3.6738 4.58284 3.70917 4.40504C3.74453 4.22724 3.83183 4.06392 3.96002 3.93573C4.08821 3.80754 4.25153 3.72025 4.42933 3.68488C4.60713 3.64951 4.79142 3.66766 4.95891 3.73704C5.12639 3.80641 5.26954 3.92389 5.37026 4.07463C5.47097 4.22536 5.52473 4.40257 5.52473 4.58385C5.52473 4.82695 5.42816 5.06009 5.25627 5.23198C5.08438 5.40387 4.85124 5.50044 4.60814 5.50044Z" fill="#696969"/>
<path d="M4.60814 11C4.22224 11.0019 3.84147 10.9114 3.49773 10.736C3.15399 10.5606 2.85728 10.3054 2.63244 9.99172C0.885882 7.58247 0 5.77129 0 4.60814C0 3.38599 0.485499 2.21389 1.34969 1.34969C2.21389 0.4855 3.38599 0 4.60814 0C5.8303 0 7.0024 0.4855 7.86659 1.34969C8.73079 2.21389 9.21629 3.38599 9.21629 4.60814C9.21629 5.77129 8.33041 7.58247 6.58385 9.99172C6.35901 10.3054 6.0623 10.5606 5.71856 10.736C5.37482 10.9114 4.99405 11.0019 4.60814 11ZM4.60814 1.00046C3.65142 1.00155 2.73419 1.38209 2.05768 2.0586C1.38117 2.73511 1.00063 3.65233 0.999539 4.60906C0.999539 5.53023 1.86709 7.23371 3.44179 9.40557C3.57547 9.5897 3.75085 9.73956 3.95357 9.8429C4.15629 9.94624 4.3806 10.0001 4.60814 10.0001C4.83569 10.0001 5.06 9.94624 5.26272 9.8429C5.46544 9.73956 5.64082 9.5897 5.7745 9.40557C7.3492 7.23371 8.21675 5.53023 8.21675 4.60906C8.21566 3.65233 7.83512 2.73511 7.15861 2.0586C6.4821 1.38209 5.56487 1.00155 4.60814 1.00046Z" fill="#696969"/>
</svg>
