<svg width="20" height="16" viewBox="0 0 20 16" fill="none" xmlns="http://www.w3.org/2000/svg">
<path d="M18 12.5833C18.3852 12.5835 18.7556 12.7071 19.0344 12.9287C19.3132 13.1502 19.479 13.4526 19.4975 13.7733C19.516 14.0939 19.3858 14.4082 19.1338 14.651C18.8818 14.8938 18.5274 15.0465 18.144 15.0775L18 15.0833H2C1.61478 15.0832 1.24441 14.9595 0.965613 14.738C0.686821 14.5165 0.520988 14.214 0.502476 13.8934C0.483963 13.5728 0.614192 13.2585 0.866175 13.0157C1.11816 12.7729 1.47258 12.6201 1.856 12.5892L2 12.5833H18ZM18 6.75C18.3978 6.75 18.7794 6.8817 19.0607 7.11612C19.342 7.35054 19.5 7.66848 19.5 8C19.5 8.33152 19.342 8.64946 19.0607 8.88388C18.7794 9.11831 18.3978 9.25 18 9.25H2C1.60218 9.25 1.22064 9.11831 0.93934 8.88388C0.658035 8.64946 0.5 8.33152 0.5 8C0.5 7.66848 0.658035 7.35054 0.93934 7.11612C1.22064 6.8817 1.60218 6.75 2 6.75H18ZM18 0.916667C18.3978 0.916667 18.7794 1.04836 19.0607 1.28278C19.342 1.5172 19.5 1.83515 19.5 2.16667C19.5 2.49819 19.342 2.81613 19.0607 3.05055C18.7794 3.28497 18.3978 3.41667 18 3.41667H2C1.60218 3.41667 1.22064 3.28497 0.93934 3.05055C0.658035 2.81613 0.5 2.49819 0.5 2.16667C0.5 1.83515 0.658035 1.5172 0.93934 1.28278C1.22064 1.04836 1.60218 0.916667 2 0.916667H18Z" fill="#1E1E1E"/>
</svg>
