<svg width="19" height="21" viewBox="0 0 19 21" fill="none" xmlns="http://www.w3.org/2000/svg">
<path d="M18.6085 11.9509L16.99 5.97009C16.5157 4.21795 15.4846 2.67896 14.0609 1.59775C12.6371 0.516532 10.9024 -0.0448616 9.13231 0.00280303C7.36226 0.0504677 5.65851 0.704455 4.29188 1.86081C2.92525 3.01717 1.97417 4.60953 1.58982 6.38479L0.336779 12.1723C0.19837 12.8117 0.20157 13.475 0.346143 14.1131C0.490716 14.7511 0.772971 15.3477 1.17207 15.8587C1.57117 16.3697 2.07691 16.7821 2.65198 17.0655C3.22704 17.3489 3.85673 17.496 4.49456 17.496H5.4435C5.63901 18.4849 6.16136 19.374 6.92205 20.0126C7.68275 20.6512 8.635 21 9.61746 21C10.5999 21 11.5522 20.6512 12.3129 20.0126C13.0736 19.374 13.5959 18.4849 13.7914 17.496H14.5053C15.1619 17.4961 15.8096 17.3402 16.3978 17.0406C16.9861 16.741 17.4989 16.3057 17.8962 15.7688C18.2936 15.232 18.5647 14.608 18.6884 13.9457C18.8121 13.2834 18.7851 12.6007 18.6094 11.9509H18.6085ZM9.61746 19.2458C9.09081 19.2436 8.57769 19.0743 8.14831 18.761C7.71893 18.4478 7.39426 18.006 7.21871 17.496H12.0162C11.8407 18.006 11.516 18.4478 11.0866 18.761C10.6572 19.0743 10.1441 19.2436 9.61746 19.2458ZM16.5394 14.7095C16.3021 15.0329 15.9945 15.295 15.6413 15.475C15.288 15.6549 14.8987 15.7478 14.5044 15.7462H4.49456C4.1119 15.7462 3.73415 15.6578 3.38918 15.4878C3.0442 15.3177 2.74082 15.0702 2.50142 14.7636C2.26201 14.457 2.09271 14.0991 2.00599 13.7163C1.91928 13.3335 1.91737 12.9356 2.0004 12.552L3.25259 6.76362C3.55444 5.36921 4.30146 4.11845 5.37489 3.21017C6.44832 2.30189 7.78656 1.78822 9.17687 1.75081C10.5672 1.7134 11.9298 2.1544 13.048 3.00371C14.1663 3.85302 14.9761 5.06189 15.3486 6.43816L16.967 12.419C17.074 12.8086 17.091 13.2185 17.0168 13.6161C16.9426 14.0137 16.7791 14.3881 16.5394 14.7095Z" fill="#1E1E1E"/>
</svg>
