<svg width="17" height="23" viewBox="0 0 17 23" fill="none" xmlns="http://www.w3.org/2000/svg">
<path d="M8.25 11C9.3378 11 10.4012 10.6774 11.3056 10.0731C12.2101 9.46874 12.9151 8.60975 13.3313 7.60476C13.7476 6.59977 13.8565 5.4939 13.6443 4.42701C13.4321 3.36011 12.9083 2.3801 12.1391 1.61092C11.3699 0.841726 10.3899 0.317902 9.323 0.105683C8.2561 -0.106535 7.15023 0.00238308 6.14524 0.418665C5.14025 0.834947 4.28127 1.5399 3.67692 2.44437C3.07257 3.34884 2.75 4.4122 2.75 5.5C2.75146 6.95825 3.33139 8.35635 4.36252 9.38748C5.39366 10.4186 6.79176 10.9985 8.25 11ZM8.25 1.83334C8.9752 1.83334 9.68411 2.04838 10.2871 2.45128C10.8901 2.85418 11.36 3.42683 11.6376 4.09683C11.9151 4.76683 11.9877 5.50407 11.8462 6.21533C11.7047 6.9266 11.3555 7.57993 10.8427 8.09273C10.3299 8.60552 9.67659 8.95474 8.96533 9.09622C8.25407 9.23769 7.51682 9.16508 6.84683 8.88756C6.17683 8.61004 5.60418 8.14007 5.20128 7.53709C4.79838 6.93411 4.58333 6.2252 4.58333 5.5C4.58333 4.52754 4.96964 3.59491 5.65728 2.90728C6.34491 2.21964 7.27754 1.83334 8.25 1.83334Z" fill="white"/>
<path fill-rule="evenodd" clip-rule="evenodd" d="M9 14.83H8C5.23192 14.83 1.83 17.2303 1.83 20C1.83 20.6462 2.35383 21.17 3 21.17H14C14.6462 21.17 15.17 20.6462 15.17 20C15.17 17.2514 11.7415 14.83 9 14.83ZM8 13C4 13 0 16.3192 0 20C0 21.6569 1.34315 23 3 23H14C15.6569 23 17 21.6569 17 20C17 16.261 12.8939 13 9 13H8Z" fill="white"/>
</svg>
