<svg width="17" height="17" viewBox="0 0 17 17" fill="none" xmlns="http://www.w3.org/2000/svg">
<path d="M16.8013 15.8006L12.5768 11.576C13.728 10.168 14.294 8.37136 14.1578 6.55772C14.0215 4.74409 13.1934 3.05221 11.8446 1.83204C10.4959 0.611865 8.72984 -0.0432431 6.91166 0.0022171C5.09348 0.0476773 3.36232 0.790227 2.07628 2.07628C0.790227 3.36232 0.0476773 5.09348 0.0022171 6.91166C-0.0432431 8.72984 0.611865 10.4959 1.83204 11.8446C3.05221 13.1934 4.74409 14.0215 6.55772 14.1578C8.37136 14.294 10.168 13.728 11.576 12.5768L15.8006 16.8013C15.934 16.9303 16.1128 17.0016 16.2984 17C16.484 16.9984 16.6615 16.9239 16.7927 16.7927C16.9239 16.6615 16.9984 16.484 17 16.2984C17.0016 16.1128 16.9303 15.934 16.8013 15.8006ZM7.10017 12.7622C5.98033 12.7622 4.88564 12.4301 3.95453 11.808C3.02341 11.1858 2.2977 10.3015 1.86915 9.26693C1.44061 8.23233 1.32848 7.09389 1.54695 5.99557C1.76542 4.89724 2.30468 3.88837 3.09652 3.09652C3.88837 2.30468 4.89724 1.76542 5.99557 1.54695C7.09389 1.32848 8.23233 1.44061 9.26693 1.86915C10.3015 2.2977 11.1858 3.02341 11.808 3.95453C12.4301 4.88564 12.7622 5.98033 12.7622 7.10017C12.7605 8.60131 12.1634 10.0405 11.102 11.102C10.0405 12.1634 8.60131 12.7605 7.10017 12.7622Z" fill="#696969"/>
</svg>
